<svg width="13" height="13" viewBox="0 0 13 13" fill="none" xmlns="http://www.w3.org/2000/svg">
<g clip-path="url(#clip0)">
<path d="M13 0H0V13H13V0Z" fill="#F0F0F0"/>
<path d="M0 7.71875H5.28125V13H7.71875V7.71875H13V5.28125H7.71875V0H5.28125V5.28125H0V7.71875Z" fill="#D80027"/>
<path d="M10.332 8.47826L13 11.1463V8.47826H10.332Z" fill="#0052B4"/>
<path d="M8.47826 8.47826L13 13V11.7213L9.75693 8.47826H8.47826Z" fill="#0052B4"/>
<path d="M11.7956 13L8.47826 9.68236V13H11.7956Z" fill="#0052B4"/>
<path d="M8.47826 8.47826L13 13V11.7213L9.75693 8.47826H8.47826Z" fill="#F0F0F0"/>
<path d="M8.47826 8.47826L13 13V11.7213L9.75693 8.47826H8.47826Z" fill="#D80027"/>
<path d="M2.03892 8.47826L0 10.5172V8.47826H2.03892Z" fill="#0052B4"/>
<path d="M4.52166 9.05325V12.9999H0.575299L4.52166 9.05325Z" fill="#0052B4"/>
<path d="M3.24299 8.47833L0 11.7214V13L4.52166 8.47833H3.24299Z" fill="#D80027"/>
<path d="M2.66805 4.52173L0 1.85368V4.52173H2.66805Z" fill="#0052B4"/>
<path d="M4.52174 4.52174L0 0V1.27867L3.24307 4.52174H4.52174Z" fill="#0052B4"/>
<path d="M1.20443 0L4.52174 3.31762V0H1.20443Z" fill="#0052B4"/>
<path d="M4.52174 4.52174L0 0V1.27867L3.24307 4.52174H4.52174Z" fill="#F0F0F0"/>
<path d="M4.52174 4.52174L0 0V1.27867L3.24307 4.52174H4.52174Z" fill="#D80027"/>
<path d="M10.9611 4.52174L13 2.48282V4.52174H10.9611Z" fill="#0052B4"/>
<path d="M8.47834 3.94674V7.62939e-05H12.4247L8.47834 3.94674Z" fill="#0052B4"/>
<path d="M9.75701 4.52166L13 1.27865V0L8.47834 4.52166H9.75701Z" fill="#D80027"/>
</g>
<defs>
<clipPath id="clip0">
<rect width="13" height="13" fill="white"/>
</clipPath>
</defs>
</svg>
